<?xml version="1.0" standalone="no"?>
<!DOCTYPE svg PUBLIC "-//W3C//DTD SVG 20010904//EN"
 "http://www.w3.org/TR/2001/REC-SVG-20010904/DTD/svg10.dtd">
<svg version="1.0" xmlns="http://www.w3.org/2000/svg"
 width="3200.000000pt" height="3200.000000pt" viewBox="0 0 3200.000000 3200.000000"
 preserveAspectRatio="xMidYMid meet">
<metadata>
Created by potrace 1.14, written by Peter Selinger 2001-2017
</metadata>
<g transform="translate(0.000000,3200.000000) scale(0.100000,-0.100000)"
fill="#000000" stroke="none">
<path d="M18447 26053 c-1 0 -54 -4 -117 -7 -129 -6 -194 -12 -325 -27 -84
-10 -112 -14 -175 -24 -14 -2 -56 -9 -95 -15 -38 -6 -90 -16 -115 -21 -25 -6
-56 -13 -70 -15 -21 -4 -172 -43 -260 -68 -57 -16 -186 -62 -254 -90 -386
-160 -635 -336 -898 -633 -94 -105 -255 -383 -309 -532 -21 -59 -24 -62 -32
-40 -39 96 -157 322 -215 409 -320 477 -787 753 -1369 807 -43 3 -150 7 -238
7 -172 0 -249 -6 -415 -30 -19 -3 -53 -7 -75 -11 -191 -26 -783 -193 -686
-193 24 0 170 -112 235 -181 36 -37 90 -101 121 -143 54 -74 216 -333 235
-378 6 -13 14 -30 20 -38 5 -8 49 -85 96 -170 294 -524 568 -831 953 -1065
281 -171 712 -321 1066 -370 22 -3 50 -8 61 -10 21 -5 21 -3 12 38 -14 67 -78
276 -105 347 -153 403 -317 679 -567 955 -84 93 -276 268 -343 313 -21 14 -67
46 -103 72 -36 26 -105 69 -155 95 -49 26 -105 56 -123 67 -17 11 -85 42 -150
69 -64 26 -112 49 -107 49 6 0 56 -13 112 -29 142 -41 369 -133 486 -197 53
-30 99 -54 102 -54 12 0 239 -160 324 -229 151 -121 366 -345 464 -481 9 -14
38 -54 64 -90 99 -138 230 -371 336 -600 9 -19 17 -30 18 -25 0 6 2 19 4 30 2
11 7 40 10 65 4 25 18 90 32 145 14 55 26 105 28 110 1 6 5 17 8 25 3 8 18 49
32 90 35 101 104 245 162 338 46 75 140 212 152 222 3 3 28 32 56 65 113 137
316 316 490 431 150 100 244 149 145 76 -166 -122 -400 -375 -526 -567 -138
-212 -245 -476 -278 -685 -3 -19 -8 -45 -10 -58 -14 -69 -26 -301 -16 -307 6
-4 24 33 102 207 l30 66 57 11 c98 18 113 22 246 56 633 165 1023 408 1270
790 55 85 185 374 200 444 6 29 102 304 134 384 98 246 238 431 419 550 39 27
72 49 72 51 0 2 -221 2 -223 -1z"/>
<path d="M15777 22734 c-1 -1 -49 -5 -107 -8 -115 -7 -188 -13 -265 -21 -27
-3 -70 -8 -95 -11 -25 -2 -56 -6 -70 -9 -14 -2 -45 -7 -70 -10 -66 -9 -123
-18 -180 -30 -14 -2 -47 -9 -75 -15 -143 -28 -178 -36 -325 -73 -207 -53 -530
-157 -582 -187 -10 -5 -23 -10 -29 -10 -6 0 -25 -7 -42 -15 -18 -8 -57 -24
-87 -35 -155 -59 -429 -195 -680 -337 -99 -56 -285 -176 -433 -280 -127 -88
-333 -253 -466 -370 -158 -140 -488 -479 -571 -587 -14 -18 -12 -18 50 -12 64
6 201 23 250 31 14 2 45 6 70 10 25 3 56 8 70 10 14 2 45 7 70 10 25 3 81 12
125 20 44 8 98 17 120 21 22 3 87 15 145 25 58 11 143 27 189 35 47 8 103 19
125 24 23 5 57 12 76 15 28 4 183 35 361 70 13 3 35 7 49 10 14 2 151 30 305
60 460 91 1105 211 1240 230 22 4 47 8 55 10 8 2 35 7 60 10 25 3 81 12 125
20 76 14 122 21 197 30 18 2 51 7 73 10 22 4 51 8 65 10 14 2 43 6 65 9 22 3
60 8 85 11 25 4 56 8 70 10 14 2 50 7 80 10 30 3 66 8 80 10 14 2 52 6 85 10
33 3 76 8 95 10 19 2 64 7 100 10 36 3 81 8 100 10 19 2 69 7 110 10 41 3 100
8 130 10 58 5 144 11 350 22 254 13 828 7 1080 -12 119 -9 207 -17 230 -20 14
-3 54 -7 90 -11 36 -3 74 -8 85 -10 11 -3 40 -7 65 -9 25 -3 56 -8 70 -10 14
-3 43 -7 65 -11 201 -29 568 -118 796 -194 281 -93 615 -246 817 -373 23 -15
42 -24 42 -19 0 13 -333 348 -440 443 -52 46 -97 86 -100 89 -7 8 -169 140
-205 168 -17 12 -61 46 -100 76 -291 222 -725 475 -1083 631 -70 31 -136 60
-147 65 -41 18 -203 78 -305 113 -357 122 -680 199 -1067 252 -21 3 -51 7 -68
10 -16 2 -61 7 -100 10 -38 4 -84 8 -101 10 -114 13 -706 29 -717 19z"/>
<path d="M18377 20204 c-1 -1 -79 -5 -173 -8 -94 -4 -189 -9 -210 -11 -21 -2
-84 -6 -139 -10 -55 -4 -116 -8 -135 -10 -19 -2 -68 -7 -109 -10 -41 -4 -82
-8 -90 -10 -9 -1 -54 -6 -101 -10 -47 -3 -92 -8 -100 -10 -8 -2 -40 -7 -70
-10 -67 -7 -101 -11 -210 -25 -47 -6 -103 -13 -125 -16 -42 -5 -110 -14 -135
-19 -8 -2 -44 -6 -80 -10 -36 -4 -67 -8 -70 -10 -3 -2 -34 -6 -70 -10 -35 -3
-67 -8 -70 -10 -3 -1 -32 -6 -65 -9 -33 -4 -69 -9 -80 -12 -29 -6 -68 -12
-185 -29 -58 -9 -130 -20 -160 -25 -52 -9 -73 -12 -165 -25 -22 -3 -51 -8 -65
-10 -14 -3 -38 -7 -55 -9 -16 -3 -70 -12 -120 -20 -84 -14 -108 -18 -202 -32
-21 -3 -63 -9 -93 -14 -30 -5 -73 -12 -95 -15 -23 -3 -52 -8 -65 -10 -14 -3
-44 -8 -66 -11 -23 -2 -53 -7 -65 -9 -13 -3 -44 -8 -69 -11 -25 -3 -54 -8 -64
-10 -11 -2 -54 -8 -96 -14 -42 -6 -85 -12 -96 -14 -10 -2 -41 -7 -69 -10 -27
-4 -61 -9 -75 -11 -52 -8 -186 -27 -215 -31 -109 -14 -307 -39 -385 -49 -30
-4 -66 -8 -80 -10 -14 -2 -52 -7 -85 -10 -33 -4 -71 -8 -85 -10 -14 -2 -61 -7
-105 -11 -44 -3 -87 -8 -96 -9 -9 -2 -61 -7 -115 -10 -55 -4 -106 -9 -115 -10
-9 -2 -65 -6 -125 -10 -60 -4 -129 -8 -154 -10 -277 -23 -884 -23 -1145 0 -27
2 -83 7 -123 10 -40 4 -82 8 -92 10 -10 2 -45 6 -77 10 -32 3 -65 8 -73 10 -8
2 -37 6 -64 10 -27 3 -52 8 -55 9 -3 2 -28 7 -56 10 -50 7 -144 27 -220 47
-81 22 -78 23 -112 -44 -137 -268 -288 -652 -368 -937 -66 -236 -132 -517
-122 -526 2 -2 56 -31 120 -63 250 -128 524 -207 857 -247 218 -26 710 -26
980 0 25 2 74 7 110 11 36 3 81 8 100 10 19 2 80 9 135 15 115 14 139 16 180
23 17 3 79 13 139 22 59 9 118 18 130 21 11 2 41 7 66 10 25 3 47 8 50 9 3 2
26 6 50 10 40 5 77 11 185 31 32 5 274 51 315 59 83 17 189 37 210 41 14 2
126 25 250 50 124 25 236 48 250 50 21 4 51 10 95 20 6 1 26 5 45 9 19 3 121
24 225 46 190 40 214 44 270 54 17 3 41 8 55 10 53 11 152 29 215 40 17 3 37
8 45 10 8 3 32 7 54 11 40 6 49 8 131 23 28 6 64 12 80 15 17 2 55 9 85 15 97
18 508 86 580 96 25 3 56 8 70 10 64 10 99 14 155 21 33 3 68 8 79 10 10 2 44
6 75 9 31 3 67 8 81 10 14 3 52 7 85 10 33 3 71 8 85 10 14 3 61 7 105 11 44
3 96 7 115 9 19 2 80 7 135 10 55 4 120 9 145 11 325 25 955 20 1225 -10 272
-30 297 -33 370 -46 33 -5 74 -12 90 -14 193 -26 626 -137 840 -214 567 -206
1049 -509 1427 -897 l68 -70 -4 45 c-3 25 -8 86 -11 135 -4 50 -9 97 -10 105
-2 8 -6 44 -10 80 -3 36 -8 72 -10 80 -2 8 -7 40 -10 70 -7 57 -43 251 -69
378 -44 203 -118 458 -202 694 l-56 156 -110 109 c-141 139 -201 192 -323 286
-148 115 -394 259 -580 342 -80 36 -287 113 -333 124 -21 5 -77 21 -127 35
-86 25 -296 70 -380 81 -22 3 -58 8 -79 11 -39 6 -48 7 -166 19 -36 3 -79 8
-95 10 -79 11 -669 27 -678 19z"/>
<path d="M18809 17386 c-2 -2 -69 -7 -149 -11 -210 -11 -282 -17 -380 -30 -14
-2 -54 -6 -90 -10 -36 -4 -76 -8 -90 -10 -14 -2 -50 -6 -80 -10 -30 -3 -66 -8
-80 -10 -14 -2 -50 -7 -80 -10 -30 -3 -66 -8 -80 -10 -14 -3 -38 -7 -55 -9
-43 -7 -225 -36 -260 -42 -16 -2 -52 -9 -80 -14 -27 -5 -63 -11 -80 -14 -33
-5 -142 -23 -190 -31 -167 -30 -260 -48 -315 -60 -36 -8 -81 -17 -100 -20 -19
-3 -89 -17 -155 -30 -66 -13 -133 -27 -150 -29 -16 -3 -39 -8 -50 -10 -40 -8
-481 -98 -505 -102 -14 -3 -99 -20 -190 -39 -151 -32 -601 -118 -674 -130 -17
-3 -51 -10 -76 -15 -25 -5 -153 -28 -285 -50 -280 -48 -278 -48 -330 -55 -22
-4 -51 -8 -65 -10 -93 -15 -162 -25 -209 -30 -30 -4 -61 -8 -70 -10 -9 -1 -45
-6 -81 -10 -36 -4 -72 -9 -80 -10 -8 -2 -44 -6 -80 -9 -36 -4 -76 -9 -90 -11
-14 -2 -54 -7 -90 -10 -36 -3 -85 -8 -110 -10 -420 -40 -989 -49 -1290 -20
-19 1 -71 6 -115 10 -89 7 -97 8 -275 31 -162 21 -448 85 -637 144 -223 69
-348 119 -551 221 l-172 87 5 -102 c9 -200 20 -346 30 -416 2 -14 6 -54 10
-90 3 -36 8 -72 10 -80 2 -8 7 -35 10 -60 11 -82 22 -145 41 -240 24 -116 151
-342 310 -548 217 -280 493 -479 819 -587 104 -35 270 -76 360 -89 22 -3 51
-8 65 -10 24 -4 79 -9 230 -22 144 -12 617 -5 720 11 14 2 65 6 114 10 50 4
97 8 105 10 9 1 48 6 86 9 39 4 81 9 95 11 14 2 50 6 80 10 30 3 66 8 80 10
33 6 75 12 130 20 25 3 56 8 70 10 14 2 45 7 70 10 144 19 589 99 1150 207
173 33 326 62 340 64 14 3 32 7 40 9 8 2 31 7 50 10 19 3 46 8 60 10 14 3 34
7 45 9 39 8 290 56 315 61 14 3 37 7 53 10 15 3 58 12 95 19 37 8 84 17 105
20 21 3 73 13 115 22 98 20 103 21 143 28 19 3 99 17 179 31 80 14 156 28 170
30 14 2 104 18 200 34 153 26 382 62 490 77 45 6 111 16 130 19 8 1 42 6 75
10 32 4 68 9 78 11 11 2 43 6 71 9 28 3 67 7 86 10 38 5 98 12 175 20 28 3 60
7 72 9 12 3 57 7 100 11 43 3 94 8 113 10 35 5 84 9 255 20 50 4 106 8 125 10
245 23 1133 24 1256 1 10 -2 64 -7 119 -10 55 -4 107 -9 115 -11 8 -2 42 -6
75 -10 101 -10 159 -19 405 -60 14 -3 77 -16 140 -31 63 -14 122 -27 130 -29
51 -11 291 -82 373 -111 55 -19 101 -34 103 -34 16 0 139 471 183 700 33 177
41 230 57 365 3 28 7 61 9 75 5 27 5 27 -110 121 -74 61 -290 219 -300 219 -2
0 -24 13 -48 30 -135 91 -424 230 -647 310 -257 93 -617 170 -920 196 -36 3
-81 8 -100 11 -41 5 -665 14 -671 9z"/>
<path d="M20527 14504 c-1 -1 -58 -5 -127 -9 -69 -3 -136 -8 -150 -10 -14 -2
-61 -6 -105 -10 -44 -3 -91 -8 -105 -10 -14 -2 -54 -6 -90 -9 -36 -4 -74 -8
-85 -10 -11 -2 -51 -7 -88 -11 -37 -3 -76 -8 -85 -10 -9 -1 -39 -6 -67 -9 -27
-4 -61 -8 -75 -11 -14 -2 -43 -7 -65 -10 -22 -3 -51 -7 -65 -10 -14 -2 -43 -7
-65 -10 -22 -3 -107 -17 -190 -31 -82 -14 -163 -27 -180 -30 -27 -4 -93 -16
-172 -30 -16 -3 -136 -26 -268 -51 -132 -25 -251 -47 -265 -49 -14 -3 -32 -7
-40 -9 -8 -2 -31 -7 -50 -10 -19 -3 -78 -14 -130 -25 -52 -11 -106 -21 -120
-24 -14 -2 -94 -18 -178 -35 -83 -17 -169 -34 -190 -37 -20 -3 -40 -8 -43 -10
-3 -2 -21 -6 -40 -9 -19 -3 -182 -35 -364 -70 -405 -78 -527 -102 -630 -120
-44 -8 -91 -17 -105 -19 -29 -6 -238 -42 -290 -51 -19 -3 -46 -8 -60 -10 -14
-3 -38 -7 -55 -10 -64 -8 -111 -16 -135 -21 -14 -3 -38 -8 -55 -10 -16 -2 -41
-6 -55 -9 -14 -2 -47 -7 -75 -11 -27 -3 -58 -8 -68 -10 -29 -5 -250 -36 -282
-39 -16 -2 -43 -6 -60 -8 -16 -3 -55 -8 -85 -12 -30 -3 -66 -8 -80 -10 -14 -2
-52 -7 -85 -10 -33 -3 -73 -8 -90 -10 -16 -2 -56 -6 -87 -9 -32 -4 -84 -8
-115 -12 -32 -3 -71 -7 -88 -9 -16 -2 -77 -7 -135 -10 -58 -4 -115 -8 -126
-10 -157 -25 -1049 -25 -1269 0 -16 2 -61 6 -98 9 -147 13 -414 53 -542 80
-499 106 -854 247 -1210 481 l-30 20 25 -40 c13 -22 34 -54 47 -71 13 -17 23
-34 23 -37 0 -9 141 -206 234 -327 234 -304 545 -628 836 -871 486 -406 994
-708 1575 -936 151 -60 395 -142 515 -174 41 -11 99 -27 127 -35 29 -7 67 -16
84 -19 18 -3 35 -8 39 -10 4 -2 22 -7 41 -10 19 -3 63 -12 99 -20 70 -16 267
-51 340 -60 25 -3 56 -8 70 -10 107 -15 176 -22 310 -30 58 -4 121 -8 140 -11
45 -5 473 -5 565 1 162 9 263 18 380 31 100 12 123 15 270 39 987 165 1903
586 2675 1229 408 340 779 753 1078 1199 131 195 318 515 307 525 -5 5 -464
10 -468 6z"/>
<path d="M10198 10294 c-2 -1 -17 -4 -35 -7 -211 -33 -415 -236 -451 -451 -4
-23 -7 -633 -7 -1357 0 -1428 -3 -1347 54 -1386 23 -16 52 -18 243 -18 204 0
218 1 245 21 57 43 56 25 56 681 0 332 3 604 6 604 3 1 167 2 363 3 471 2 442
-18 442 301 0 223 -5 245 -63 279 -31 18 -55 19 -390 20 l-356 1 -1 358 -1
357 419 0 c474 0 476 0 506 68 26 58 25 409 -1 463 -32 64 -22 63 -549 65
-263 0 -479 0 -480 -2z"/>
<path d="M11629 10290 c-14 -4 -35 -13 -48 -19 -53 -29 -51 38 -51 -1588 0
-1416 1 -1510 18 -1543 31 -62 61 -70 280 -70 216 0 248 7 281 62 20 31 20 51
21 637 0 400 4 607 10 611 6 4 45 6 87 5 l77 -1 188 -485 c104 -266 191 -491
194 -499 3 -8 23 -60 44 -115 21 -55 41 -109 44 -120 10 -30 38 -61 75 -79 28
-15 61 -17 236 -14 187 3 206 5 231 24 79 58 85 112 29 254 -20 52 -41 104
-46 115 -5 11 -29 72 -53 135 -86 225 -288 745 -296 760 -4 8 -10 27 -14 41
-5 22 -2 28 17 33 43 10 150 88 213 152 70 73 135 193 153 283 8 36 11 206 11
487 -1 386 -3 438 -19 492 -29 95 -81 182 -151 253 -82 83 -157 133 -251 166
l-74 26 -590 2 c-324 1 -602 -1 -616 -5z m1101 -948 l0 -359 -300 0 -300 0 0
359 0 358 300 0 300 0 0 -358z"/>
<path d="M13776 10289 c-35 -10 -65 -36 -78 -69 -11 -27 -14 -2600 -4 -2658
22 -115 77 -214 177 -314 87 -86 199 -149 304 -167 94 -18 815 -14 892 4 207
48 388 215 453 416 l24 74 0 1310 c0 1433 4 1344 -57 1389 -27 20 -41 21 -241
21 -235 0 -249 -3 -282 -67 -15 -28 -16 -146 -16 -1295 0 -694 -3 -1263 -7
-1264 -43 -3 -651 -3 -652 1 -1 3 -2 572 -3 1265 -2 1376 2 1294 -59 1339 -26
20 -42 21 -225 22 -108 1 -210 -2 -226 -7z"/>
<path d="M15896 10275 c-29 -15 -45 -32 -53 -56 -9 -26 -12 -400 -12 -1537 -1
-1654 -5 -1552 61 -1592 31 -18 48 -20 243 -17 236 2 253 7 281 72 21 51 21
3029 0 3080 -26 62 -55 69 -280 71 -186 1 -201 0 -240 -21z"/>
<path d="M16795 10284 c-37 -12 -44 -18 -67 -59 -15 -26 -18 -397 -4 -443 5
-18 24 -43 40 -55 29 -21 44 -22 286 -27 l255 -5 0 -1260 c0 -1030 3 -1266 14
-1292 9 -22 27 -39 55 -53 38 -18 61 -20 237 -20 213 0 236 6 276 66 17 26 18
94 18 1293 l0 1266 245 3 c357 3 344 -8 344 302 0 182 -2 208 -19 237 -35 60
0 57 -856 59 -624 1 -794 -1 -824 -12z"/>
<path d="M18853 10280 c-74 -34 -68 102 -71 -1585 -2 -1432 -1 -1522 15 -1555
33 -65 60 -71 293 -68 180 3 210 5 234 21 60 39 56 -52 54 1604 -3 1446 -4
1519 -21 1545 -32 47 -73 55 -279 55 -156 0 -193 -3 -225 -17z"/>
<path d="M20155 10292 c-215 -23 -416 -203 -476 -427 -11 -41 -13 -296 -14
-1375 l0 -1325 22 -36 c32 -51 69 -59 284 -59 202 0 232 7 273 63 20 28 21 38
21 638 0 335 2 610 5 610 3 1 165 2 360 3 329 2 357 3 387 21 52 31 58 57 58
287 0 194 -2 209 -21 235 -41 55 -48 56 -431 56 -245 0 -353 4 -356 11 -1 6
-3 166 -2 356 l0 345 432 5 c418 5 432 6 460 26 44 33 51 71 52 275 0 204 -6
232 -62 273 -28 21 -39 21 -495 21 -257 0 -480 -1 -497 -3z"/>
<path d="M21599 10283 c-54 -23 -89 -74 -89 -133 0 -16 54 -183 121 -372 210
-596 370 -1050 406 -1148 18 -52 36 -102 38 -110 2 -8 23 -67 46 -130 l42
-115 1 -550 c2 -592 2 -591 54 -630 24 -18 46 -20 227 -23 230 -4 266 3 302
57 l23 34 0 548 0 548 64 178 c36 98 104 286 151 418 47 132 128 357 180 500
290 806 278 770 271 818 -8 54 -52 102 -105 117 -51 13 -400 7 -428 -8 -12 -6
-30 -23 -42 -37 -11 -14 -99 -265 -197 -558 -97 -293 -182 -543 -189 -556 -11
-22 -12 -21 -27 30 -15 50 -221 662 -318 945 -44 128 -67 164 -115 181 -46 16
-376 13 -416 -4z"/>
</g>
</svg>
