<?xml version="1.0" standalone="no"?>
<!DOCTYPE svg PUBLIC "-//W3C//DTD SVG 20010904//EN"
 "http://www.w3.org/TR/2001/REC-SVG-20010904/DTD/svg10.dtd">
<svg version="1.0" xmlns="http://www.w3.org/2000/svg"
 width="2152.000000pt" height="2152.000000pt" viewBox="0 0 2152.000000 2152.000000"
 preserveAspectRatio="xMidYMid meet">
<metadata>
Created by potrace 1.14, written by Peter Selinger 2001-2017
</metadata>
<g transform="translate(0.000000,2152.000000) scale(0.100000,-0.100000)"
fill="#000000" stroke="none">
<path d="M13687 20024 c-1 -1 -67 -5 -147 -8 -80 -4 -158 -8 -175 -10 -16 -2
-64 -7 -105 -11 -41 -3 -82 -8 -90 -10 -8 -2 -37 -6 -65 -10 -87 -10 -109 -13
-135 -19 -14 -3 -41 -8 -60 -10 -56 -8 -299 -64 -375 -87 -388 -116 -705 -278
-945 -483 -44 -38 -217 -211 -250 -251 -124 -149 -238 -346 -318 -550 l-18
-47 -18 48 c-28 76 -150 306 -205 388 -167 246 -395 457 -638 588 -137 74
-352 153 -473 174 -14 3 -32 7 -40 9 -8 3 -33 7 -55 10 -22 4 -51 8 -65 11
-135 23 -535 24 -670 0 -14 -2 -46 -7 -71 -10 -74 -11 -212 -36 -281 -52 -10
-2 -26 -6 -35 -8 -108 -25 -366 -99 -426 -123 l-38 -16 43 -24 c87 -50 200
-151 277 -248 104 -131 162 -224 361 -579 228 -408 360 -594 571 -805 250
-250 591 -453 962 -572 69 -22 305 -85 352 -94 30 -5 189 -33 233 -40 19 -3
22 0 17 15 -3 10 -8 27 -10 38 -14 77 -94 316 -151 454 -171 419 -416 765
-749 1057 -165 146 -467 325 -692 411 -34 14 -61 26 -59 27 2 2 30 -4 62 -13
32 -8 76 -20 97 -25 53 -13 311 -117 382 -154 289 -151 475 -287 694 -505 186
-186 344 -397 491 -655 58 -102 151 -291 165 -334 9 -28 15 -22 21 21 51 364
196 698 433 997 163 207 448 450 676 575 l50 28 -40 -34 c-358 -300 -559 -556
-700 -893 -53 -127 -106 -311 -119 -418 -28 -214 -25 -370 4 -292 41 108 115
255 129 256 20 1 19 0 181 39 74 17 137 33 141 35 3 2 19 6 35 9 16 3 95 27
174 54 565 191 883 435 1092 837 50 96 89 196 168 430 94 275 114 326 172 434
92 174 201 297 351 397 37 25 67 47 67 48 0 3 -180 2 -183 0z"/>
<path d="M10997 16704 c-1 -1 -58 -5 -127 -9 -69 -4 -138 -8 -155 -10 -16 -1
-61 -6 -100 -9 -38 -4 -81 -9 -95 -11 -23 -3 -110 -15 -155 -20 -11 -2 -47 -8
-80 -14 -33 -6 -76 -13 -95 -16 -28 -5 -170 -33 -250 -50 -204 -43 -622 -175
-825 -260 -60 -25 -114 -48 -120 -49 -78 -23 -524 -251 -693 -354 -168 -103
-355 -229 -482 -325 -55 -41 -245 -193 -266 -212 -6 -5 -44 -39 -85 -75 -157
-137 -579 -573 -579 -598 0 -7 271 24 455 53 50 8 108 17 130 20 22 4 76 13
120 20 44 8 96 17 115 20 31 5 173 31 225 41 11 2 36 7 55 10 19 4 44 8 55 11
11 2 36 6 55 9 19 3 55 10 80 16 25 5 56 12 70 14 14 3 151 30 305 60 154 31
291 58 305 60 14 3 79 16 145 29 133 26 364 71 409 79 16 3 52 10 80 15 28 6
65 12 81 15 17 3 91 16 165 31 74 14 151 28 170 31 19 2 69 11 110 19 41 8 93
17 115 20 23 3 52 7 65 10 23 4 80 14 125 21 58 8 103 15 125 19 14 3 43 7 65
10 22 4 65 10 95 15 30 5 79 12 109 15 30 4 61 8 70 10 9 1 41 6 71 10 30 3
66 8 80 10 14 2 50 7 80 10 30 3 66 8 80 10 37 5 118 14 180 20 30 3 73 8 95
10 132 13 243 23 345 30 47 3 112 8 145 10 308 25 1075 25 1281 0 21 -2 71 -7
109 -10 105 -7 235 -21 285 -30 14 -2 48 -7 75 -10 53 -6 94 -12 135 -20 14
-3 41 -7 60 -10 19 -3 58 -10 85 -15 28 -6 59 -12 70 -14 11 -2 50 -11 86 -20
37 -8 78 -17 90 -20 13 -3 51 -12 84 -21 33 -8 67 -17 75 -19 8 -2 42 -12 75
-22 33 -10 65 -19 70 -20 49 -11 364 -125 442 -160 86 -38 302 -145 358 -177
33 -18 87 -49 120 -67 l60 -33 -55 58 c-514 546 -995 912 -1615 1230 -115 59
-309 149 -400 185 -11 4 -40 17 -65 28 -25 11 -56 23 -70 27 -14 4 -38 13 -55
21 -41 18 -278 96 -405 133 -187 54 -490 121 -655 146 -22 3 -51 7 -65 10
-103 17 -323 40 -485 51 -87 6 -553 12 -558 8z"/>
<path d="M13677 14174 c-1 -1 -101 -4 -222 -8 -121 -4 -238 -8 -260 -10 -22
-2 -85 -7 -140 -10 -55 -4 -113 -9 -130 -11 -27 -4 -109 -12 -206 -20 -55 -5
-161 -16 -189 -20 -14 -2 -54 -7 -90 -10 -36 -4 -72 -8 -80 -10 -8 -2 -44 -6
-80 -10 -36 -4 -74 -9 -85 -11 -11 -2 -42 -6 -70 -9 -27 -2 -61 -7 -75 -9 -14
-3 -63 -10 -110 -16 -47 -6 -96 -13 -110 -15 -83 -13 -161 -25 -205 -30 -27
-4 -117 -17 -200 -30 -82 -13 -168 -26 -190 -29 -22 -3 -53 -8 -70 -11 -80
-14 -166 -28 -345 -55 -107 -17 -206 -33 -220 -35 -52 -8 -217 -34 -260 -40
-25 -3 -85 -13 -135 -20 -49 -8 -106 -17 -125 -20 -19 -2 -93 -13 -165 -24
-71 -11 -150 -22 -175 -25 -25 -3 -56 -8 -69 -11 -14 -2 -95 -14 -180 -25 -86
-11 -169 -22 -186 -25 -74 -10 -334 -41 -430 -50 -27 -3 -72 -8 -100 -11 -107
-11 -122 -13 -190 -19 -93 -9 -104 -10 -400 -30 -504 -35 -1094 -20 -1490 36
-38 6 -83 12 -100 15 -53 7 -238 45 -319 65 -44 10 -80 18 -82 17 -4 -5 -124
-248 -124 -253 0 -2 -11 -29 -25 -58 -84 -186 -230 -594 -270 -757 -2 -8 -18
-69 -35 -134 -32 -127 -73 -317 -68 -320 166 -105 463 -220 668 -260 14 -2 50
-10 80 -16 30 -6 71 -13 90 -16 19 -3 59 -9 87 -14 174 -30 884 -34 1040 -6
10 2 54 7 98 11 80 7 100 9 185 19 25 3 65 8 90 11 25 3 63 8 85 11 22 3 51 7
65 9 14 2 45 6 70 10 25 4 59 9 75 11 17 2 41 6 55 9 14 3 41 7 60 10 19 3 85
14 145 25 61 11 127 22 149 26 21 3 48 7 60 10 11 2 32 6 46 8 101 19 427 82
525 101 66 13 131 26 145 29 46 9 385 77 405 82 11 2 34 7 50 10 17 3 82 16
145 30 63 14 130 27 149 30 18 3 41 7 50 9 44 10 273 55 326 64 33 6 69 13 80
15 57 11 203 38 225 42 14 2 45 9 70 14 25 5 59 12 76 15 18 3 99 16 180 30
82 14 165 28 184 31 19 3 73 11 120 19 47 8 105 17 130 20 25 3 56 8 70 10 55
8 107 15 145 20 22 2 112 14 200 25 177 22 221 27 312 35 35 2 87 7 115 10
153 14 226 18 498 30 282 13 701 8 890 -10 19 -2 71 -6 115 -10 108 -9 160
-14 193 -19 15 -3 51 -8 81 -11 30 -4 63 -9 75 -11 12 -2 39 -6 61 -9 38 -5
56 -8 115 -20 14 -3 43 -7 65 -11 22 -3 56 -9 75 -14 19 -5 49 -11 65 -14 54
-10 257 -63 381 -99 440 -131 849 -334 1219 -606 49 -36 103 -77 119 -91 98
-83 216 -192 281 -258 l75 -77 -4 50 c-5 45 -10 110 -21 230 -3 44 -13 123
-20 170 -3 17 -7 48 -10 70 -14 92 -47 275 -61 335 -9 36 -18 76 -20 90 -30
153 -160 579 -228 746 -51 126 -427 454 -716 624 -276 164 -562 277 -890 354
-58 13 -121 27 -140 30 -19 3 -44 7 -55 10 -11 2 -42 7 -68 10 -27 4 -57 9
-66 11 -10 2 -44 6 -77 9 -32 4 -78 9 -101 12 -107 14 -665 38 -676 28z"/>
<path d="M13988 11355 c-2 -1 -61 -6 -133 -9 -179 -9 -283 -18 -369 -31 -11
-2 -53 -6 -93 -10 -39 -3 -82 -8 -95 -10 -24 -4 -90 -12 -168 -21 -47 -5 -184
-24 -210 -29 -8 -1 -64 -10 -124 -20 -59 -9 -116 -18 -125 -20 -9 -1 -36 -6
-61 -10 -25 -4 -54 -9 -65 -11 -24 -5 -188 -33 -230 -40 -16 -3 -37 -7 -45 -9
-8 -2 -35 -7 -60 -10 -25 -3 -52 -8 -60 -10 -8 -2 -28 -7 -45 -10 -16 -2 -257
-50 -535 -105 -278 -56 -516 -103 -530 -106 -14 -3 -99 -20 -190 -39 -91 -19
-214 -44 -275 -55 -60 -12 -117 -23 -125 -24 -45 -9 -97 -19 -115 -22 -11 -1
-45 -8 -75 -14 -30 -6 -71 -13 -90 -16 -19 -3 -42 -7 -50 -9 -8 -3 -67 -14
-130 -25 -63 -11 -125 -22 -136 -24 -12 -2 -39 -7 -60 -10 -36 -6 -184 -31
-244 -41 -14 -3 -72 -12 -130 -20 -58 -9 -116 -18 -130 -20 -14 -2 -50 -7 -80
-10 -30 -4 -62 -9 -70 -10 -8 -2 -44 -6 -80 -10 -36 -4 -72 -8 -80 -10 -8 -1
-40 -6 -70 -9 -30 -4 -68 -8 -85 -10 -16 -3 -64 -7 -105 -11 -41 -3 -91 -8
-110 -10 -136 -18 -593 -38 -835 -38 -148 0 -354 8 -465 18 -19 2 -62 6 -95 9
-446 40 -749 108 -1195 268 -36 13 -152 66 -257 119 l-193 96 5 -106 c5 -123
15 -271 20 -321 2 -19 7 -60 10 -90 5 -55 13 -113 20 -160 2 -14 7 -45 10 -70
29 -218 53 -308 107 -410 213 -398 484 -686 803 -856 189 -100 469 -183 710
-210 33 -3 74 -8 90 -10 172 -21 651 -21 835 1 19 2 71 7 115 10 44 3 91 8
105 10 14 2 52 6 85 10 33 3 71 7 85 10 14 2 52 7 85 10 88 10 124 14 185 25
30 5 75 12 100 15 25 3 56 8 70 10 14 2 84 14 155 25 72 11 202 34 290 50 88
16 174 31 191 34 17 3 66 13 110 21 43 9 90 18 104 20 14 2 72 13 130 24 58
11 119 23 135 25 17 3 75 14 130 25 55 11 115 23 134 26 19 3 37 7 40 9 3 2
28 7 55 10 27 4 52 9 55 11 3 1 24 6 46 9 22 4 108 20 190 36 83 16 164 31
180 34 17 3 75 15 130 26 55 11 114 23 130 26 17 2 111 20 210 39 196 38 212
40 300 55 58 10 81 14 135 25 14 3 44 7 67 10 23 2 64 10 90 15 26 6 71 14 98
17 28 3 53 7 56 9 4 2 27 6 50 9 24 3 58 8 74 11 33 6 43 8 124 19 30 3 63 9
75 11 12 2 41 7 66 10 25 3 86 11 135 19 50 7 115 17 145 20 30 4 69 9 85 11
17 2 53 6 80 9 28 3 61 7 75 9 14 3 56 8 94 11 38 3 72 8 75 9 3 2 49 7 101
10 52 4 109 9 125 11 47 6 132 14 225 20 47 3 112 8 145 10 233 18 852 25
1065 12 58 -4 146 -9 195 -12 50 -3 110 -8 135 -11 25 -4 65 -8 89 -10 41 -3
78 -7 176 -20 52 -7 71 -10 185 -29 126 -21 131 -22 160 -29 14 -3 37 -8 53
-10 15 -3 35 -7 45 -10 9 -3 28 -7 42 -10 68 -12 310 -80 430 -121 74 -25 135
-45 137 -45 1 0 18 51 37 113 66 212 148 566 176 762 6 44 13 91 15 105 3 14
7 50 11 80 3 30 7 66 9 79 5 28 -6 39 -115 127 -102 82 -244 183 -354 251 -93
58 -322 179 -386 203 -19 7 -64 27 -99 42 -117 53 -438 153 -552 173 -19 3
-50 10 -69 15 -19 5 -48 11 -65 14 -31 5 -116 19 -125 21 -12 3 -127 18 -150
20 -110 10 -180 17 -205 21 -33 5 -692 14 -697 9z"/>
<path d="M15797 8474 c-1 -1 -74 -5 -162 -8 -162 -7 -210 -11 -300 -21 -27 -3
-75 -8 -105 -11 -30 -2 -73 -7 -95 -10 -47 -6 -106 -13 -157 -19 -100 -13
-125 -16 -148 -20 -14 -2 -49 -7 -79 -10 -30 -4 -63 -9 -75 -11 -12 -2 -39 -7
-61 -10 -43 -5 -70 -9 -155 -24 -30 -5 -73 -12 -95 -15 -36 -5 -181 -31 -290
-51 -22 -4 -47 -8 -55 -9 -13 -2 -136 -25 -210 -40 -14 -3 -41 -8 -60 -11 -19
-3 -69 -12 -110 -21 -41 -8 -86 -16 -100 -18 -67 -11 -100 -18 -160 -31 -36
-8 -80 -17 -99 -20 -28 -5 -380 -75 -442 -89 -9 -2 -32 -6 -50 -9 -35 -6 -49
-9 -134 -26 -27 -6 -61 -12 -75 -15 -14 -3 -47 -9 -75 -15 -27 -6 -59 -12 -70
-14 -37 -7 -350 -68 -365 -71 -25 -5 -194 -37 -220 -41 -14 -3 -83 -16 -155
-29 -71 -13 -182 -33 -245 -44 -63 -11 -131 -23 -150 -26 -19 -4 -46 -8 -60
-10 -46 -7 -104 -16 -190 -31 -47 -9 -103 -17 -125 -20 -22 -2 -62 -9 -90 -14
-27 -5 -104 -16 -170 -25 -66 -9 -131 -18 -145 -20 -25 -4 -73 -10 -145 -19
-22 -3 -58 -8 -80 -11 -53 -7 -107 -12 -185 -20 -36 -3 -76 -8 -90 -10 -14 -2
-59 -7 -100 -10 -41 -3 -86 -8 -100 -10 -14 -3 -70 -7 -125 -10 -55 -4 -116
-8 -135 -10 -195 -19 -873 -26 -1095 -11 -66 4 -142 9 -170 11 -51 3 -133 12
-195 20 -19 2 -57 7 -85 10 -78 9 -274 42 -355 59 -14 3 -50 11 -80 17 -368
74 -807 248 -1080 428 -30 20 -61 41 -69 46 -51 31 336 -512 465 -655 13 -14
31 -34 41 -46 160 -189 410 -437 618 -615 608 -520 1392 -936 2145 -1138 41
-11 91 -25 110 -30 20 -6 78 -20 130 -31 52 -12 104 -23 115 -25 90 -21 372
-66 495 -80 30 -3 75 -8 100 -10 314 -35 787 -34 1110 0 19 2 64 7 100 10 36
3 72 8 80 10 8 2 39 7 69 10 30 4 63 9 75 11 11 2 38 6 61 10 22 3 58 9 80 14
22 5 56 12 75 15 143 24 463 107 650 169 106 35 338 119 375 136 11 5 79 35
150 66 144 62 399 191 515 258 41 25 104 61 140 82 55 32 353 230 385 256 6 5
66 52 135 105 616 474 1139 1090 1512 1781 l39 72 -33 1 c-71 2 -369 5 -371 3z"/>
<path d="M5395 4263 c-231 -28 -441 -226 -484 -460 -9 -46 -13 -2608 -5 -2659
7 -38 41 -80 77 -93 16 -6 112 -10 231 -8 190 2 207 4 233 23 57 42 55 26 57
683 l1 606 362 0 c477 0 447 -19 447 300 0 169 -3 205 -17 232 -32 61 -38 62
-434 64 l-360 2 0 358 -1 359 420 0 c464 0 472 1 504 62 15 28 18 62 18 239 1
224 -2 238 -61 276 -25 17 -65 18 -493 19 -256 0 -478 -1 -495 -3z"/>
<path d="M6800 4248 c-28 -14 -47 -32 -56 -54 -21 -50 -21 -3028 0 -3079 27
-65 46 -70 276 -72 233 -3 261 3 292 67 17 32 18 84 18 636 0 473 3 603 13
606 6 2 45 4 86 4 l73 -1 59 -150 c32 -82 79 -202 103 -265 24 -63 67 -173 95
-245 28 -71 90 -233 139 -358 58 -150 97 -238 115 -257 36 -38 69 -42 294 -38
198 3 208 6 256 70 37 50 27 92 -92 398 -124 315 -262 670 -311 798 -18 46
-30 84 -28 85 1 1 26 13 53 27 140 68 262 205 316 353 23 61 23 71 26 510 4
501 1 525 -63 647 -82 156 -254 291 -414 326 -19 4 -299 8 -621 10 -579 3
-586 3 -629 -18z m1128 -935 l-3 -358 -297 -1 -298 -1 0 358 0 359 300 0 300
0 -2 -357z"/>
<path d="M8967 4255 c-45 -15 -40 -11 -61 -53 -16 -31 -17 -133 -18 -1335 0
-716 3 -1317 6 -1335 39 -201 204 -390 406 -463 64 -23 72 -23 485 -26 345 -2
431 0 484 12 225 53 418 247 467 470 3 17 7 616 8 1333 2 1428 5 1340 -57
1386 -27 20 -41 21 -235 21 -230 0 -251 -5 -285 -62 -18 -32 -19 -76 -19
-1298 l0 -1265 -42 -1 c-48 -1 -523 -1 -581 0 l-40 1 0 1263 c-1 1176 -2 1264
-18 1294 -34 64 -50 68 -267 70 -142 1 -205 -2 -233 -12z"/>
<path d="M11129 4260 c-46 -13 -66 -29 -83 -64 -15 -31 -16 -167 -16 -1549 l0
-1514 23 -33 c35 -53 75 -61 288 -60 212 2 241 9 271 70 17 33 18 127 17 1540
0 1139 -3 1513 -12 1539 -8 24 -24 41 -54 57 -38 20 -55 21 -225 22 -100 0
-195 -4 -209 -8z"/>
<path d="M11996 4255 c-75 -26 -82 -53 -81 -299 2 -295 -9 -286 343 -286 133
0 243 -3 243 -7 1 -5 2 -575 3 -1268 1 -1212 2 -1261 20 -1291 34 -57 62 -63
282 -63 183 0 201 2 235 21 22 12 43 35 51 52 10 25 13 283 13 1291 l0 1260
255 5 c283 6 291 7 319 69 14 32 16 71 16 238 -1 218 -4 232 -62 270 -25 17
-80 18 -814 19 -615 1 -794 -1 -823 -11z"/>
<path d="M14079 4260 c-46 -13 -66 -29 -83 -64 -15 -31 -16 -169 -16 -1540 0
-1642 -3 -1554 56 -1593 25 -16 52 -18 245 -18 205 0 219 1 246 21 15 11 33
36 40 55 9 26 12 400 12 1537 1 1678 6 1554 -68 1591 -31 16 -62 19 -221 19
-102 0 -197 -4 -211 -8z"/>
<path d="M15313 4254 c-224 -47 -402 -234 -441 -464 -4 -25 -7 -632 -7 -1350
1 -1218 2 -1307 18 -1338 30 -55 57 -60 294 -59 l213 2 31 32 c22 21 34 45 38
75 4 23 7 303 6 621 0 377 3 577 10 578 6 1 168 2 360 3 466 1 439 -16 440
280 1 105 -3 207 -8 226 -12 47 -43 78 -84 86 -19 4 -188 7 -376 8 l-342 1 0
355 0 355 431 5 c394 5 432 7 458 23 47 31 53 61 54 270 0 226 -6 254 -70 286
-38 19 -60 19 -502 19 -338 0 -478 -4 -523 -14z"/>
<path d="M16792 4249 c-44 -22 -82 -81 -82 -127 0 -16 25 -101 56 -188 31 -88
73 -208 94 -269 21 -60 63 -180 93 -265 139 -391 171 -482 207 -585 72 -205
162 -460 182 -515 20 -53 21 -78 22 -605 2 -592 1 -591 54 -630 25 -18 45 -20
237 -22 238 -3 265 3 297 67 16 32 18 81 18 577 l0 542 54 148 c29 81 113 315
186 518 72 204 135 379 140 390 14 34 92 249 96 265 2 8 46 134 99 278 52 145
95 275 95 288 0 44 -30 98 -67 124 -36 24 -41 25 -233 27 -215 2 -243 -4 -282
-57 -10 -14 -54 -133 -98 -265 -44 -132 -127 -381 -184 -553 -57 -172 -107
-309 -110 -304 -3 6 -59 169 -125 364 -210 624 -248 735 -265 761 -31 46 -75
55 -269 55 -153 0 -181 -2 -215 -19z"/>
</g>
</svg>
